<?xml version="1.0" encoding="UTF-8"?>
<svg width="18px" height="18px" viewBox="0 0 18 18" version="1.1" xmlns="http://www.w3.org/2000/svg" xmlns:xlink="http://www.w3.org/1999/xlink">
    <title>编组 12</title>
    <defs>
        <filter x="0.0%" y="0.0%" width="100.0%" height="100.0%" filterUnits="objectBoundingBox" id="filter-1">
            <feGaussianBlur stdDeviation="0" in="SourceGraphic"></feGaussianBlur>
        </filter>
    </defs>
    <g id="UI" stroke="none" stroke-width="1" fill="none" fill-rule="evenodd">
        <g id="个人中心" transform="translate(-39.000000, -533.000000)">
            <g id="编组-12" transform="translate(39.000000, 533.000000)">
                <rect id="矩形备份-8" opacity="0.550664993" filter="url(#filter-1)" x="0" y="0" width="18" height="18"></rect>
                <g id="账单-(1)" transform="translate(9.500000, 9.083467) scale(-1, 1) translate(-9.500000, -9.083467) translate(1.000000, 2.000000)" fill="#234FA5" fill-rule="nonzero">
                    <path d="M14.8749616,0 L8.49984652,0 C7.3282531,0 6.37480815,0.95344495 6.37480815,2.12503837 L6.37480815,8.50015348 L9.91653323,8.50015348 C11.3332365,8.50015348 12.0415716,9.91685679 12.0415716,10.6251918 L12.0415716,12.0418952 C11.6491534,12.0418952 11.3332365,11.6544243 11.3332365,11.3335435 C11.3332365,10.2412738 10.3004679,9.20850514 9.20819818,9.20850514 L3.54141812,9.20850514 C0.866708695,9.20850514 0.0471743662,13.1518625 0.0138544286,13.3197405 C-0.0279324587,13.5279943 0.0259073806,13.7440509 0.160482076,13.9076789 C0.294833709,14.0719089 0.495861191,14.1670894 0.708044697,14.1669337 L6.37480815,14.1669337 C6.76581521,14.1669337 7.08315981,13.8495889 7.08315981,13.4585819 L12.0415716,13.4585819 C13.2131816,13.4585819 14.16661,12.5051369 14.16661,11.3335435 L14.16661,4.9584284 L16.2916483,4.9584284 C16.6826554,4.9584284 17,4.6410838 17,4.25007674 L17,2.12503837 C17,0.95344495 16.0465551,0 14.8749616,0 Z M7.34311177,12.0418952 C7.60661652,11.3335435 8.13646496,10.6251918 9.20819818,10.6251918 C9.52624005,10.6251918 9.91653323,11.0161989 9.91653323,11.3335435 C9.91653323,11.580048 9.97108695,11.8173384 10.0560885,12.0418952 L7.34311177,12.0418952 L7.34311177,12.0418952 Z M12.7499233,7.79181842 L7.79149486,7.79181842 L7.79149486,6.37511511 L12.7499233,6.37511511 L12.7499233,7.79181842 Z M12.7499233,5.66678005 L7.79149486,5.66678005 L7.79149486,4.25007674 L12.7499233,4.25007674 L12.7499233,5.66678005 Z M12.7499233,3.54174168 L7.79149486,3.54174168 L7.79149486,2.12503837 L12.7499233,2.12503837 L12.7499233,3.54174168 Z M15.5833133,3.54174168 L14.16661,3.54174168 L14.16661,2.12503837 C14.16661,1.73403131 14.4846685,1.41670331 14.8749616,1.41670331 C15.2652714,1.41670331 15.5833133,1.73403131 15.5833133,2.12503837 L15.5833133,3.54174168 L15.5833133,3.54174168 Z" id="形状"></path>
                </g>
            </g>
        </g>
    </g>
</svg>