<?xml version="1.0" encoding="UTF-8"?>
<svg width="18px" height="18px" viewBox="0 0 18 18" version="1.1" xmlns="http://www.w3.org/2000/svg" xmlns:xlink="http://www.w3.org/1999/xlink">
    <title>编组 5</title>
    <defs>
        <filter x="0.0%" y="0.0%" width="100.0%" height="100.0%" filterUnits="objectBoundingBox" id="filter-1">
            <feGaussianBlur stdDeviation="0" in="SourceGraphic"></feGaussianBlur>
        </filter>
    </defs>
    <g id="UI" stroke="none" stroke-width="1" fill="none" fill-rule="evenodd">
        <g id="个人中心" transform="translate(-39.000000, -413.000000)">
            <g id="编组-5" transform="translate(39.000000, 413.000000)">
                <rect id="矩形备份" opacity="0.550664993" filter="url(#filter-1)" x="0" y="0" width="18" height="18"></rect>
                <g id="钱包-(9)" transform="translate(1.000000, 1.000000)" fill="#234FA5" fill-rule="nonzero">
                    <path d="M11.3076501,9.25850438 C11.3076501,9.51511135 11.4445483,9.75222598 11.6667764,9.88052946 C11.8890046,10.008833 12.1628009,10.008833 12.3850291,9.88052946 C12.6072573,9.75222598 12.7441554,9.51511135 12.7441554,9.25850438 C12.7441554,9.00189741 12.6072573,8.76478278 12.3850291,8.63647929 C12.1628009,8.5081758 11.8890046,8.5081758 11.6667764,8.63647929 C11.4445483,8.76478278 11.3076501,9.00189741 11.3076501,9.25850438 L11.3076501,9.25850438 Z" id="路径"></path>
                    <path d="M11.5096038,10.8407676 C10.8299857,10.8407676 10.273296,10.2840779 10.273296,9.60445982 L10.273296,8.81420628 C10.273296,8.13458823 10.8299857,7.57789852 11.5096038,7.57789852 L16,7.57789852 L16,5.02274541 C16,4.34312736 15.4433103,3.78643765 14.7636922,3.78643765 L1.23630776,3.78643765 C0.556689716,3.78643765 0,4.34312736 0,5.02274541 L0,14.2880291 C0,14.9676472 0.556689716,15.5243369 1.23630776,15.5243369 L14.7636922,15.5243369 C15.4433103,15.5243369 16,14.9676472 16,14.2880291 L16,10.8407676 L11.5096038,10.8407676 Z M13.7223137,3.00145246 L12.4175173,0.63771632 C12.089123,0.0423919864 11.3339919,-0.175366767 10.7386675,0.153027482 L5.58445835,3.00145246 L13.7223137,3.00145246 Z" id="形状"></path>
                </g>
            </g>
        </g>
    </g>
</svg>